<?xml version="1.0" encoding="utf-8"?>

<!DOCTYPE svg PUBLIC "-//W3C//DTD SVG 1.1//EN" "http://www.w3.org/Graphics/SVG/1.1/DTD/svg11.dtd">
<!-- Uploaded to: SVG Repo, www.svgrepo.com, Generator: SVG Repo Mixer Tools -->
<svg version="1.1" id="_x32_" xmlns="http://www.w3.org/2000/svg" xmlns:xlink="http://www.w3.org/1999/xlink" 
	 viewBox="0 0 512 512"  xml:space="preserve">
<style type="text/css">
	.st0{fill:#000000;}
</style>
<g>
	<path class="st0" d="M466.585,300.21l-33.163-14.274V158.853c0.016-6.026-1.226-11.845-3.456-17.107
		c-3.343-7.913-8.9-14.591-15.904-19.328c-6.99-4.728-15.54-7.522-24.583-7.515H321.91v-87.24c0-3.781-0.78-7.451-2.198-10.77
		c-2.101-4.983-5.588-9.179-9.998-12.164C305.32,1.752,299.923,0,294.239,0H217.77c-3.79,0-7.467,0.773-10.779,2.181
		c-4.983,2.11-9.186,5.596-12.164,9.999c-2.977,4.402-4.729,9.807-4.729,15.483v87.24H122.53c-6.034,0-11.845,1.234-17.115,3.463
		c-7.913,3.352-14.584,8.9-19.328,15.906c-4.729,6.997-7.515,15.531-7.515,24.582v127.083L45.424,300.21
		C28.977,307.286,21,326.033,27.29,342.79L97.168,512h158.829h158.846l69.862-169.21
		C491.008,326.033,483.016,307.286,466.585,300.21z M220.524,54.068h70.96v30.418h-70.96V54.068z M403.012,272.833l-128.07-55.143
		c-12.084-5.207-25.792-5.207-37.892,0l-128.054,55.143v-113.98c0-1.91,0.366-3.654,1.051-5.262c1.019-2.404,2.754-4.506,4.92-5.97
		c2.181-1.456,4.697-2.292,7.563-2.3h266.949c1.911,0,3.662,0.374,5.255,1.059c2.419,1.019,4.521,2.746,5.986,4.919
		c1.45,2.182,2.293,4.697,2.293,7.554V272.833z"/>
	<rect x="152.923" y="170.667" class="st0" width="47.318" height="47.31"/>
	<rect x="311.768" y="170.667" class="st0" width="47.302" height="47.31"/>
</g>
</svg>