<?xml version="1.0" encoding="utf-8"?>
<!-- Uploaded to: SVG Repo, www.svgrepo.com, Generator: SVG Repo Mixer Tools -->
<svg version="1.1" id="Uploaded to svgrepo.com" xmlns="http://www.w3.org/2000/svg" xmlns:xlink="http://www.w3.org/1999/xlink" 
	 width="800px" height="800px" viewBox="0 0 32 32" xml:space="preserve">
<style type="text/css">
	.avocado_een{fill:#231F20;}
	.avocado_twintig{fill:#EAD13F;}
	.avocado_drie{fill:#716558;}
	.st0{fill:#A3AEB5;}
	.st1{fill:#FFFAEE;}
	.st2{fill:#AF9480;}
	.st3{fill:#DBD2C1;}
	.st4{fill:#CC4121;}
	.st5{fill:#788287;}
	.st6{fill:#C3CC6A;}
	.st7{fill:#D1712A;}
	.st8{fill:#E0A838;}
	.st9{fill:#6F9B45;}
	.st10{fill:#0E608E;}
	.st11{fill:#E598A3;}
	.st12{fill:#3D3935;}
	.st13{fill:#248EBC;}
	.st14{fill:#BF63C1;}
</style>
<g>
	<polygon class="avocado_drie" points="6.5,31.5 6.5,29.5 8.5,29.5 8.5,21.5 12.5,21.5 12.5,19.499 17.5,19.499 17.5,21.5 
		21.5,21.5 21.5,29.5 23.5,29.5 23.5,31.5 	"/>
	<g>
		<g>
			<path class="avocado_twintig" d="M10.5,27.5v-4h9v4H10.5z M14,16.5c-3.033,0-5.5-2.468-5.5-5.5V9.5H8
				C5.519,9.5,3.5,7.481,3.5,5S5.519,0.5,8,0.5h14c2.482,0,4.501,2.019,4.501,4.5s-2.019,4.5-4.5,4.5h-0.5L21.5,10.999
				c0,3.033-2.467,5.501-5.5,5.501H14z M21.5,7.5H22c1.379,0,2.501-1.121,2.501-2.5s-1.122-2.5-2.5-2.5h-0.5L21.5,7.5z M8,2.5
				C6.622,2.5,5.5,3.621,5.5,5S6.622,7.5,8,7.5h0.5v-5H8z"/>
		</g>
	</g>
	<path class="avocado_een" d="M22,11l0.001-1c2.761,0,5-2.239,5-5c0-2.761-2.239-5-5-5H8C5.239,0,3,2.239,3,5
		c0,2.761,2.239,5,5,5v1c0,3.314,2.686,6,6,6v2h-2V21H8v8H6v3h18v-3h-2v-8h-4v-2.001h-2v-2C19.314,17,22,14.314,22,11z M23,30v1H7
		v-1H23z M21,29H9v-7h12V29z M17,19.999v1H13v-1H17z M9,11V9H8C5.794,9,4,7.206,4,5c0-2.206,1.794-4,4-4l14.001,0
		c2.206,0,4,1.794,4,4c0,2.189-1.766,3.972-3.949,4L21,9v2c0,2.757-2.243,5-5,5h-2C11.243,16,9,13.757,9,11z M22.001,8
		c1.654,0,3-1.346,3-3s-1.346-3-3-3L21,2l0,6L22.001,8z M22.001,3c1.105,0,2,0.895,2,2c0,1.105-0.895,2-2,2V3z M5,5
		c0,1.654,1.346,3,3,3h1V2H8C6.346,2,5,3.346,5,5z M8,7C6.896,7,6,6.105,6,5c0-1.105,0.895-2,2-2V7z M20,23H10v5h10V23z M19,27h-8
		v-3h8V27z"/>
</g>
</svg>